<?xml version="1.0" encoding="utf-8"?>
<!-- Generator: Adobe Illustrator 28.3.0, SVG Export Plug-In . SVG Version: 6.00 Build 0)  -->
<svg version="1.1" id="Layer_1" xmlns="http://www.w3.org/2000/svg" xmlns:xlink="http://www.w3.org/1999/xlink" x="0px" y="0px"
	 viewBox="0 0 290.26 170.62" style="enable-background:new 0 0 290.26 170.62;" xml:space="preserve">
<path d="M204.95,0c-23.31,0-44.43,9.35-59.82,24.5C129.73,9.35,108.62,0,85.31,0C38.19,0,0,38.19,0,85.31
	c0,47.11,38.19,85.31,85.31,85.31c23.31,0,44.42-9.36,59.82-24.51c15.39,15.15,36.51,24.51,59.82,24.51
	c47.11,0,85.31-38.2,85.31-85.31C290.26,38.19,252.06,0,204.95,0z M109.9,66.12c0-6.05,4.9-10.96,10.96-10.96
	c6.05,0,10.95,4.91,10.95,10.96c0,6.05-4.9,10.96-10.95,10.96C114.8,77.08,109.9,72.17,109.9,66.12z M145.13,119.14
	c-11.9,0-21.58-9.69-21.58-21.59c0-2.76,2.23-5,5-5c2.76,0,5,2.24,5,5c0,6.39,5.19,11.59,11.58,11.59c6.38,0,11.58-5.2,11.58-11.59
	c0-2.76,2.24-5,5-5s5,2.24,5,5C166.71,109.45,157.03,119.14,145.13,119.14z M169.4,77.08c-6.05,0-10.96-4.91-10.96-10.96
	c0-6.05,4.91-10.96,10.96-10.96s10.96,4.91,10.96,10.96C180.36,72.17,175.45,77.08,169.4,77.08z"/>
</svg>
