<?xml version="1.0" encoding="utf-8"?>
<!-- Generator: Adobe Illustrator 28.3.0, SVG Export Plug-In . SVG Version: 6.00 Build 0)  -->
<svg version="1.1" id="Ebene_1" shape-rendering="auto"
	 xmlns="http://www.w3.org/2000/svg" xmlns:xlink="http://www.w3.org/1999/xlink" x="0px" y="0px" viewBox="0 0 80.01 80"
	 style="enable-background:new 0 0 80.01 80;" xml:space="preserve">
<g>
	<rect x="32" width="3.2" height="3.2"/>
	<rect x="48" width="3.2" height="3.2"/>
	<rect x="28.8" y="3.2" width="3.2" height="3.2"/>
	<rect x="25.6" y="6.4" width="3.2" height="3.2"/>
	<rect x="35.2" y="6.4" width="3.2" height="3.2"/>
	<polygon points="32,9.6 28.8,9.6 28.8,12.8 28.8,16 32,16 32,12.8 	"/>
	<polygon points="54.4,12.8 54.4,9.6 54.4,6.4 51.2,6.4 48,6.4 48,3.2 44.8,3.2 44.8,6.4 44.8,9.6 48,9.6 48,12.8 51.2,12.8 	"/>
	<polygon points="38.4,19.2 38.4,22.4 41.6,22.4 41.6,19.2 41.6,16 41.6,12.8 41.6,9.6 38.4,9.6 38.4,12.8 38.4,16 35.2,16 32,16 
		32,19.2 32,22.4 35.2,22.4 35.2,19.2 	"/>
	<polygon points="48,19.2 51.2,19.2 51.2,16 48,16 48,12.8 44.8,12.8 44.8,16 44.8,19.2 44.8,22.4 48,22.4 	"/>
	<rect x="35.2" y="22.4" width="3.2" height="3.2"/>
	<rect x="41.6" y="22.4" width="3.2" height="3.2"/>
	<polygon points="6.4,28.8 9.6,28.8 9.6,25.6 6.4,25.6 3.2,25.6 0,25.6 0,28.8 3.2,28.8 	"/>
	<rect x="70.4" y="25.6" width="3.2" height="3.2"/>
	<rect x="28.8" y="28.8" width="3.2" height="3.2"/>
	<rect x="64" y="28.8" width="3.2" height="3.2"/>
	<rect x="73.6" y="28.8" width="3.2" height="3.2"/>
	<rect y="32" width="3.2" height="3.2"/>
	<rect x="67.2" y="32" width="3.2" height="3.2"/>
	<rect x="3.2" y="35.2" width="3.2" height="3.2"/>
	<polygon points="73.6,35.2 73.6,38.4 70.4,38.4 70.4,41.6 73.6,41.6 73.6,44.8 73.6,48 76.8,48 80,48 80,44.8 80,41.6 80,38.4 
		80,35.2 76.8,35.2 	"/>
	<polygon points="6.4,38.4 6.4,41.6 6.4,44.8 9.6,44.8 12.8,44.8 12.8,41.6 12.8,38.4 9.6,38.4 	"/>
	<rect x="64" y="41.6" width="3.2" height="3.2"/>
	<rect y="44.8" width="3.2" height="3.2"/>
	<polygon points="22.4,48 22.4,44.8 19.2,44.8 19.2,41.6 16,41.6 16,44.8 16,48 16,51.2 19.2,51.2 19.2,48 	"/>
	<rect x="67.2" y="44.8" width="3.2" height="3.2"/>
	<rect x="3.2" y="48" width="3.2" height="3.2"/>
	<rect x="35.2" y="48" width="3.2" height="3.2"/>
	<rect y="51.2" width="3.2" height="3.2"/>
	<polygon points="9.6,51.2 6.4,51.2 6.4,54.4 9.6,54.4 12.8,54.4 16,54.4 16,51.2 12.8,51.2 	"/>
	<rect x="19.2" y="51.2" width="3.2" height="3.2"/>
	<rect x="70.4" y="51.2" width="3.2" height="3.2"/>
	<rect x="76.8" y="51.2" width="3.2" height="3.2"/>
	<polygon points="73.6,57.6 73.6,60.8 73.6,64 76.8,64 80,64 80,60.8 80,57.6 76.8,57.6 76.8,54.4 73.6,54.4 	"/>
	<rect x="57.6" y="57.6" width="3.2" height="3.2"/>
	<path d="M70.4,57.6h-3.2v-3.2v-3.2H64V48h-3.2v-3.2h-3.2h-3.2v-3.2v-3.2v-3.2h3.2v3.2v3.2h3.2H64v-3.2v-3.2h-3.2V32v-3.2v-3.2h-3.2
		h-3.2v-3.2v-3.2h-3.2v3.2v3.2v3.2H48V32h3.2v3.2v3.2v3.2v3.2H48V48h3.2h3.2h3.2v3.2h-3.2h-3.2v3.2v3.2H48v3.2h3.2V64H48h-3.2v3.2
		h-3.2v3.2h3.2H48v3.2h3.2v3.2V80h3.2v-3.2v-3.2v-3.2h3.2v-3.2h3.2v3.2H64h3.2v-3.2V64h3.2v-3.2V57.6z M54.4,28.8h3.2V32h-3.2V28.8z
		 M60.8,64h-3.2h-3.2v-3.2v-3.2v-3.2h3.2h3.2H64v3.2v3.2V64H60.8z"/>
	<polygon points="32,64 32,60.8 28.8,60.8 28.8,57.6 32,57.6 32,54.4 32,51.2 32,48 28.8,48 28.8,44.8 25.6,44.8 25.6,48 22.4,48 
		22.4,51.2 25.6,51.2 25.6,54.4 25.6,57.6 25.6,60.8 25.6,64 25.6,67.2 28.8,67.2 28.8,64 	"/>
	<rect x="70.4" y="64" width="3.2" height="3.2"/>
	<polygon points="35.2,70.4 38.4,70.4 38.4,67.2 41.6,67.2 41.6,64 44.8,64 44.8,60.8 44.8,57.6 48,57.6 48,54.4 48,51.2 44.8,51.2 
		44.8,48 44.8,44.8 44.8,41.6 48,41.6 48,38.4 48,35.2 44.8,35.2 44.8,32 44.8,28.8 41.6,28.8 41.6,25.6 38.4,25.6 38.4,28.8 
		35.2,28.8 35.2,32 32,32 32,35.2 28.8,35.2 25.6,35.2 25.6,32 22.4,32 19.2,32 19.2,28.8 22.4,28.8 25.6,28.8 28.8,28.8 28.8,25.6 
		28.8,22.4 28.8,19.2 25.6,19.2 25.6,22.4 25.6,25.6 22.4,25.6 19.2,25.6 16,25.6 12.8,25.6 12.8,28.8 12.8,32 9.6,32 6.4,32 
		6.4,35.2 9.6,35.2 12.8,35.2 12.8,38.4 16,38.4 16,35.2 19.2,35.2 22.4,35.2 22.4,38.4 19.2,38.4 19.2,41.6 22.4,41.6 25.6,41.6 
		25.6,38.4 28.8,38.4 32,38.4 32,41.6 32,44.8 32,48 35.2,48 35.2,44.8 38.4,44.8 38.4,41.6 38.4,38.4 35.2,38.4 35.2,35.2 
		38.4,35.2 38.4,38.4 41.6,38.4 41.6,41.6 41.6,44.8 41.6,48 41.6,51.2 38.4,51.2 38.4,54.4 35.2,54.4 35.2,57.6 32,57.6 32,60.8 
		35.2,60.8 38.4,60.8 38.4,64 35.2,64 32,64 32,67.2 28.8,67.2 28.8,70.4 32,70.4 32,73.6 28.8,73.6 28.8,70.4 25.6,70.4 25.6,73.6 
		25.6,76.8 25.6,80 28.8,80 28.8,76.8 32,76.8 32,80 35.2,80 35.2,76.8 38.4,76.8 38.4,73.6 35.2,73.6 	"/>
	<rect x="38.4" y="70.4" width="3.2" height="3.2"/>
	<polygon points="76.8,73.6 76.8,76.8 73.6,76.8 73.6,80 76.8,80 80,80 80,76.8 80,73.6 80,70.4 76.8,70.4 	"/>
	<polygon points="64,73.6 64,76.8 64,80 67.2,80 70.4,80 70.4,76.8 70.4,73.6 70.4,70.4 67.2,70.4 67.2,73.6 	"/>
	<polygon points="41.6,80 44.8,80 48,80 48,76.8 44.8,76.8 44.8,73.6 41.6,73.6 41.6,76.8 	"/>
	<path d="M0.68,22.4h21.04c0.37,0,0.68-0.3,0.68-0.68V19.2V16v-3.2V9.6V6.4V3.2V0.68C22.41,0.3,22.1,0,21.72,0H0.68
		C0.31,0,0,0.3,0,0.68V3.2v3.2v3.2v3.2V16v3.2v2.52C0,22.09,0.3,22.4,0.68,22.4z M3.2,16v-3.2V9.6V6.4V3.59
		c0-0.22,0.18-0.39,0.39-0.39h15.22c0.22,0,0.39,0.18,0.39,0.39V6.4v3.2v3.2V16v2.81c0,0.22-0.18,0.39-0.39,0.39H3.59
		c-0.22,0-0.39-0.18-0.39-0.39V16z"/>
	<path d="M7.08,16h8.24C15.7,16,16,15.7,16,15.32V12.8V9.6V7.08c0-0.37-0.3-0.68-0.68-0.68H7.08C6.71,6.4,6.4,6.7,6.4,7.08V9.6v3.2
		v2.52C6.4,15.7,6.7,16,7.08,16z"/>
	<path d="M79.32,0H58.28c-0.37,0-0.68,0.3-0.68,0.68V3.2v3.2v3.2v3.2V16v3.2v2.52c0,0.37,0.3,0.68,0.68,0.68h21.04
		c0.37,0,0.68-0.3,0.68-0.68V19.2V16v-3.2V9.6V6.4V3.2V0.68C80.01,0.3,79.7,0,79.32,0z M76.8,6.4v3.2v3.2V16v2.81
		c0,0.22-0.18,0.39-0.39,0.39H61.19c-0.22,0-0.39-0.18-0.39-0.39V16v-3.2V9.6V6.4V3.59c0-0.22,0.18-0.39,0.39-0.39h15.22
		c0.22,0,0.39,0.18,0.39,0.39V6.4z"/>
	<path d="M72.92,6.4h-8.24C64.31,6.4,64,6.7,64,7.08V9.6v3.2v2.52C64,15.7,64.3,16,64.68,16h8.24c0.37,0,0.68-0.3,0.68-0.68V12.8
		V9.6V7.08C73.6,6.71,73.3,6.4,72.92,6.4z"/>
	<path d="M21.72,57.6c0,0-21.04,0-21.04,0C0.31,57.6,0,57.9,0,58.28v2.52V64v3.2v3.2v3.2v3.2v2.52C0,79.7,0.3,80,0.68,80h21.04
		c0.37,0,0.68-0.3,0.68-0.68V76.8v-3.2v-3.2v-3.2V64v-3.2v-2.52C22.4,57.91,22.1,57.6,21.72,57.6z M19.2,64v3.2v3.2v3.2v2.81
		c0,0.22-0.18,0.39-0.39,0.39H3.59c-0.22,0-0.39-0.18-0.39-0.39V73.6v-3.2v-3.2V64v-2.81c0-0.22,0.18-0.39,0.39-0.39h15.22
		c0.22,0,0.39,0.18,0.39,0.39V64z"/>
	<path d="M15.32,64H7.08c-0.37,0-0.68,0.3-0.68,0.68v2.52v3.2v2.52c0,0.37,0.3,0.68,0.68,0.68h8.24c0.37,0,0.68-0.3,0.68-0.68V70.4
		v-3.2v-2.52C16,64.3,15.7,64,15.32,64z"/>
</g>
</svg>
